<svg xmlns="http://www.w3.org/2000/svg" xmlns:xlink="http://www.w3.org/1999/xlink" width="500" zoomAndPan="magnify" viewBox="0 0 375 374.999991" height="500" preserveAspectRatio="xMidYMid meet" version="1.0"><defs><g/><clipPath id="b367976861"><path d="M 86.539062 9.460938 L 287.820312 9.460938 L 287.820312 240.617188 L 86.539062 240.617188 Z M 86.539062 9.460938 " clip-rule="nonzero"/></clipPath></defs><g fill="#f6f7fc" fill-opacity="1"><g transform="translate(54.039043, 351.394664)"><g><path d="M 59.875 0 L 59.875 -11.40625 L 14.257812 -11.40625 L 14.257812 -45.621094 L 59.875 -45.621094 L 59.875 -57.023438 L 14.257812 -57.023438 C 7.984375 -57.023438 2.851562 -51.890625 2.851562 -45.621094 L 2.851562 -11.40625 C 2.851562 -5.132812 7.984375 0 14.257812 0 Z M 59.875 0 "/></g></g></g><g fill="#f6f7fc" fill-opacity="1"><g transform="translate(122.106213, 351.394664)"><g><path d="M 14.257812 -57.023438 C 7.984375 -57.023438 2.851562 -51.890625 2.851562 -45.621094 L 2.851562 0 L 14.257812 0 L 14.257812 -22.808594 L 48.46875 -22.808594 L 48.46875 0 L 59.875 0 L 59.875 -45.621094 C 59.875 -51.890625 54.742188 -57.023438 48.46875 -57.023438 Z M 14.257812 -45.621094 L 48.46875 -45.621094 L 48.46875 -34.214844 L 14.257812 -34.214844 Z M 14.257812 -45.621094 "/></g></g></g><g fill="#f6f7fc" fill-opacity="1"><g transform="translate(190.173383, 351.394664)"><g><path d="M 48.46875 -34.214844 L 14.257812 -34.214844 L 14.257812 -57.023438 L 2.851562 -57.023438 L 2.851562 0 L 14.257812 0 L 14.257812 -22.808594 L 48.46875 -22.808594 L 48.46875 0 L 59.875 0 L 59.875 -57.023438 L 48.46875 -57.023438 Z M 48.46875 -34.214844 "/></g></g></g><g fill="#f6f7fc" fill-opacity="1"><g transform="translate(258.24056, 351.394664)"><g><path d="M 14.257812 -57.023438 C 7.984375 -57.023438 2.851562 -51.890625 2.851562 -45.621094 L 2.851562 0 L 14.257812 0 L 14.257812 -45.621094 L 25.660156 -45.621094 L 25.660156 0 L 37.066406 0 L 37.066406 -45.621094 L 48.46875 -45.621094 L 48.46875 0 L 59.875 0 L 59.875 -45.621094 C 59.875 -51.890625 54.742188 -57.023438 48.46875 -57.023438 Z M 14.257812 -57.023438 "/></g></g></g><path fill="#f6f7fc" d="M 252.421875 87.09375 C 252.011719 86.339844 251.476562 85.59375 250.359375 85.027344 L 234.425781 75.761719 C 234.203125 75.636719 233.96875 75.539062 233.714844 75.476562 C 233.636719 75.457031 233.558594 75.457031 233.472656 75.441406 C 233.308594 75.414062 233.140625 75.382812 232.976562 75.386719 L 232.945312 75.382812 L 232.945312 75.390625 C 232.472656 75.398438 232.011719 75.527344 231.601562 75.765625 L 195.738281 96.605469 L 195.707031 96.542969 L 192.816406 98.226562 C 189.324219 100.253906 185.03125 100.253906 181.539062 98.226562 L 165.863281 89.121094 C 164.996094 88.613281 164.457031 87.675781 164.457031 86.660156 C 164.457031 85.648438 164.996094 84.710938 165.863281 84.203125 L 181.539062 75.101562 C 185.03125 73.074219 189.324219 73.074219 192.816406 75.101562 L 196.589844 77.292969 C 197.460938 77.796875 198.53125 77.796875 199.402344 77.292969 L 214.003906 68.8125 C 214.878906 68.304688 215.414062 67.367188 215.414062 66.355469 C 215.414062 65.339844 214.878906 64.40625 214.003906 63.898438 L 192.816406 51.582031 C 189.324219 49.558594 185.03125 49.558594 181.539062 51.582031 L 129.628906 81.75 C 125.871094 83.933594 125.871094 89.390625 129.628906 91.574219 L 181.539062 121.738281 C 185.03125 123.765625 189.324219 123.765625 192.816406 121.738281 L 232.945312 98.417969 L 232.945312 151.542969 L 220.050781 159.058594 L 192.816406 174.933594 C 191.949219 175.433594 191.03125 175.8125 190.070312 176.074219 C 187.195312 176.839844 184.128906 176.429688 181.539062 174.933594 L 144.226562 153.25 C 142.480469 152.238281 141.40625 150.363281 141.40625 148.335938 L 141.40625 117.371094 C 141.40625 116.359375 140.867188 115.417969 139.996094 114.917969 L 125.402344 106.425781 C 124.527344 105.921875 123.453125 105.921875 122.582031 106.425781 C 121.710938 106.933594 121.175781 107.875 121.175781 108.886719 L 121.175781 160.097656 C 121.175781 162.121094 122.25 163.988281 123.992188 165.011719 L 181.539062 198.453125 C 183.230469 199.433594 185.148438 199.949219 187.097656 199.964844 L 187.136719 199.964844 C 187.414062 199.964844 187.6875 199.933594 187.964844 199.917969 C 188.175781 199.902344 188.386719 199.902344 188.601562 199.878906 C 188.890625 199.839844 189.183594 199.765625 189.464844 199.710938 C 189.664062 199.664062 189.859375 199.640625 190.046875 199.59375 C 190.363281 199.515625 190.660156 199.394531 190.960938 199.285156 C 191.132812 199.222656 191.296875 199.183594 191.453125 199.117188 C 191.917969 198.929688 192.375 198.707031 192.808594 198.453125 L 242.460938 169.601562 L 250.328125 165.105469 C 252.089844 164.101562 253.183594 162.21875 253.183594 160.175781 L 253.183594 89.933594 C 253.183594 88.921875 252.910156 87.945312 252.421875 87.09375 " fill-opacity="1" fill-rule="nonzero"/><g clip-path="url(#b367976861)"><path fill="#f6f7fc" d="M 192.671875 34.617188 C 191 33.648438 189.113281 33.128906 187.179688 33.109375 C 185.25 33.128906 183.355469 33.648438 181.683594 34.617188 L 112.335938 74.914062 C 108.859375 76.9375 106.714844 80.671875 106.714844 84.714844 L 106.714844 165.3125 C 106.714844 169.359375 108.855469 173.09375 112.335938 175.109375 L 181.683594 215.40625 C 183.378906 216.394531 185.296875 216.917969 187.257812 216.925781 C 189.214844 216.917969 191.140625 216.394531 192.839844 215.414062 L 261.878906 175.292969 C 265.355469 173.273438 267.5 169.539062 267.5 165.496094 L 267.5 142.207031 C 267.492188 141.191406 268.035156 140.257812 268.902344 139.753906 L 283.605469 131.214844 C 284.46875 130.707031 285.546875 130.707031 286.410156 131.214844 C 287.285156 131.722656 287.820312 132.65625 287.820312 133.667969 L 287.820312 177.042969 C 287.8125 178.894531 287.355469 180.714844 286.488281 182.34375 C 286.269531 183.414062 285.113281 184.671875 283.476562 185.960938 C 283.445312 185.992188 283.398438 186.023438 283.359375 186.054688 C 279.207031 189.308594 272.335938 192.664062 271.117188 193.375 L 192.839844 238.863281 C 191.085938 239.875 189.089844 240.398438 187.066406 240.375 L 186.980469 240.375 L 186.980469 240.367188 C 185.117188 240.320312 183.292969 239.796875 181.683594 238.863281 L 92.160156 186.839844 C 88.679688 184.820312 86.539062 181.085938 86.539062 177.042969 L 86.539062 72.992188 C 86.539062 71.175781 86.765625 69.328125 87.558594 67.761719 C 87.667969 67.355469 88.75 65.355469 90.988281 63.710938 C 91.828125 63.140625 93.320312 62.371094 94.714844 61.558594 L 181.429688 11.171875 C 183.175781 10.160156 185.164062 9.636719 187.179688 9.664062 C 189.199219 9.636719 191.179688 10.15625 192.925781 11.171875 L 272.941406 57.664062 C 273.125 57.773438 273.265625 57.910156 273.421875 58.035156 L 274.4375 58.621094 C 277.15625 60.074219 281.417969 62.285156 283.730469 64.050781 L 283.917969 64.195312 C 283.949219 64.21875 283.980469 64.242188 284.015625 64.261719 C 284.09375 64.332031 284.148438 64.398438 284.226562 64.472656 C 285.074219 65.183594 285.796875 66.023438 286.355469 66.964844 C 286.371094 66.976562 286.378906 66.992188 286.394531 67.007812 L 286.386719 67.007812 C 287.324219 68.582031 287.820312 70.378906 287.820312 72.207031 L 287.820312 110.304688 C 287.820312 111.320312 287.285156 112.253906 286.410156 112.757812 L 271.707031 121.304688 C 270.84375 121.804688 269.765625 121.804688 268.902344 121.304688 C 268.027344 120.800781 267.496094 119.867188 267.496094 118.851562 L 267.496094 84.496094 C 267.496094 80.449219 265.347656 76.710938 261.863281 74.691406 L 192.675781 34.617188 L 192.675781 34.621094 Z M 192.671875 34.617188 " fill-opacity="1" fill-rule="nonzero"/></g></svg>