<svg xmlns="http://www.w3.org/2000/svg" xmlns:xlink="http://www.w3.org/1999/xlink" width="500" zoomAndPan="magnify" viewBox="0 0 375 374.999991" height="500" preserveAspectRatio="xMidYMid meet" version="1.0"><defs><g/><clipPath id="4c6562a867"><path d="M 86.539062 9.546875 L 287.820312 9.546875 L 287.820312 240.703125 L 86.539062 240.703125 Z M 86.539062 9.546875 " clip-rule="nonzero"/></clipPath></defs><g fill="#463f57" fill-opacity="1"><g transform="translate(54.053765, 351.755613)"><g><path d="M 59.878906 0 L 59.878906 -11.40625 L 14.257812 -11.40625 L 14.257812 -45.625 L 59.878906 -45.625 L 59.878906 -57.027344 L 14.257812 -57.027344 C 7.984375 -57.027344 2.851562 -51.898438 2.851562 -45.625 L 2.851562 -11.40625 C 2.851562 -5.132812 7.984375 0 14.257812 0 Z M 59.878906 0 "/></g></g></g><g fill="#463f57" fill-opacity="1"><g transform="translate(122.117889, 351.755613)"><g><path d="M 14.257812 -57.027344 C 7.984375 -57.027344 2.851562 -51.898438 2.851562 -45.625 L 2.851562 0 L 14.257812 0 L 14.257812 -22.8125 L 48.476562 -22.8125 L 48.476562 0 L 59.878906 0 L 59.878906 -45.625 C 59.878906 -51.898438 54.75 -57.027344 48.476562 -57.027344 Z M 14.257812 -45.625 L 48.476562 -45.625 L 48.476562 -34.21875 L 14.257812 -34.21875 Z M 14.257812 -45.625 "/></g></g></g><g fill="#463f57" fill-opacity="1"><g transform="translate(190.182014, 351.755613)"><g><path d="M 48.476562 -34.21875 L 14.257812 -34.21875 L 14.257812 -57.027344 L 2.851562 -57.027344 L 2.851562 0 L 14.257812 0 L 14.257812 -22.8125 L 48.476562 -22.8125 L 48.476562 0 L 59.878906 0 L 59.878906 -57.027344 L 48.476562 -57.027344 Z M 48.476562 -34.21875 "/></g></g></g><g fill="#463f57" fill-opacity="1"><g transform="translate(258.246133, 351.755613)"><g><path d="M 14.257812 -57.027344 C 7.984375 -57.027344 2.851562 -51.898438 2.851562 -45.625 L 2.851562 0 L 14.257812 0 L 14.257812 -45.625 L 25.664062 -45.625 L 25.664062 0 L 37.070312 0 L 37.070312 -45.625 L 48.476562 -45.625 L 48.476562 0 L 59.878906 0 L 59.878906 -45.625 C 59.878906 -51.898438 54.75 -57.027344 48.476562 -57.027344 Z M 14.257812 -57.027344 "/></g></g></g><path fill="#463f57" d="M 252.421875 87.179688 C 252.011719 86.425781 251.476562 85.679688 250.359375 85.113281 L 234.425781 75.847656 C 234.203125 75.722656 233.96875 75.625 233.714844 75.5625 C 233.636719 75.542969 233.558594 75.542969 233.472656 75.527344 C 233.308594 75.5 233.140625 75.46875 232.976562 75.472656 L 232.945312 75.46875 L 232.945312 75.476562 C 232.472656 75.484375 232.011719 75.613281 231.601562 75.851562 L 195.738281 96.691406 L 195.707031 96.628906 L 192.816406 98.3125 C 189.324219 100.339844 185.03125 100.339844 181.539062 98.3125 L 165.863281 89.207031 C 164.996094 88.699219 164.457031 87.761719 164.457031 86.746094 C 164.457031 85.734375 164.996094 84.796875 165.863281 84.289062 L 181.539062 75.1875 C 185.03125 73.160156 189.324219 73.160156 192.816406 75.1875 L 196.589844 77.378906 C 197.460938 77.882812 198.53125 77.882812 199.402344 77.378906 L 214.003906 68.898438 C 214.878906 68.390625 215.414062 67.453125 215.414062 66.441406 C 215.414062 65.425781 214.878906 64.492188 214.003906 63.984375 L 192.816406 51.667969 C 189.324219 49.644531 185.03125 49.644531 181.539062 51.667969 L 129.628906 81.835938 C 125.871094 84.019531 125.871094 89.476562 129.628906 91.660156 L 181.539062 121.824219 C 185.03125 123.851562 189.324219 123.851562 192.816406 121.824219 L 232.945312 98.503906 L 232.945312 151.628906 L 220.050781 159.144531 L 192.816406 175.019531 C 191.949219 175.519531 191.03125 175.898438 190.070312 176.160156 C 187.195312 176.925781 184.128906 176.515625 181.539062 175.019531 L 144.226562 153.335938 C 142.480469 152.324219 141.40625 150.449219 141.40625 148.421875 L 141.40625 117.457031 C 141.40625 116.445312 140.867188 115.503906 139.996094 115.003906 L 125.402344 106.511719 C 124.527344 106.007812 123.453125 106.007812 122.582031 106.511719 C 121.710938 107.019531 121.175781 107.960938 121.175781 108.972656 L 121.175781 160.183594 C 121.175781 162.207031 122.25 164.074219 123.992188 165.097656 L 181.539062 198.539062 C 183.230469 199.519531 185.148438 200.035156 187.097656 200.050781 L 187.136719 200.050781 C 187.414062 200.050781 187.6875 200.019531 187.964844 200.003906 C 188.175781 199.988281 188.386719 199.988281 188.601562 199.964844 C 188.890625 199.925781 189.183594 199.851562 189.464844 199.796875 C 189.664062 199.75 189.859375 199.726562 190.046875 199.679688 C 190.363281 199.601562 190.660156 199.480469 190.960938 199.371094 C 191.132812 199.308594 191.296875 199.269531 191.453125 199.203125 C 191.917969 199.015625 192.375 198.792969 192.808594 198.539062 L 242.460938 169.6875 L 250.328125 165.191406 C 252.089844 164.1875 253.183594 162.304688 253.183594 160.261719 L 253.183594 90.019531 C 253.183594 89.007812 252.910156 88.03125 252.421875 87.179688 " fill-opacity="1" fill-rule="nonzero"/><g clip-path="url(#4c6562a867)"><path fill="#463f57" d="M 192.671875 34.703125 C 191 33.734375 189.113281 33.214844 187.179688 33.195312 C 185.25 33.214844 183.355469 33.734375 181.683594 34.703125 L 112.335938 75 C 108.859375 77.023438 106.714844 80.757812 106.714844 84.800781 L 106.714844 165.398438 C 106.714844 169.445312 108.855469 173.179688 112.335938 175.195312 L 181.683594 215.492188 C 183.378906 216.480469 185.296875 217.003906 187.257812 217.011719 C 189.214844 217.003906 191.140625 216.480469 192.839844 215.5 L 261.878906 175.378906 C 265.355469 173.359375 267.5 169.625 267.5 165.582031 L 267.5 142.292969 C 267.492188 141.28125 268.035156 140.34375 268.902344 139.839844 L 283.605469 131.300781 C 284.46875 130.792969 285.546875 130.792969 286.410156 131.300781 C 287.285156 131.808594 287.820312 132.742188 287.820312 133.753906 L 287.820312 177.128906 C 287.8125 178.980469 287.355469 180.800781 286.488281 182.429688 C 286.269531 183.5 285.113281 184.757812 283.476562 186.046875 C 283.445312 186.078125 283.398438 186.109375 283.359375 186.140625 C 279.207031 189.394531 272.335938 192.75 271.117188 193.460938 L 192.839844 238.949219 C 191.085938 239.960938 189.089844 240.484375 187.066406 240.460938 L 186.980469 240.460938 L 186.980469 240.453125 C 185.117188 240.40625 183.292969 239.882812 181.683594 238.949219 L 92.160156 186.925781 C 88.679688 184.90625 86.539062 181.171875 86.539062 177.128906 L 86.539062 73.082031 C 86.539062 71.261719 86.765625 69.414062 87.558594 67.847656 C 87.667969 67.441406 88.75 65.441406 90.988281 63.796875 C 91.828125 63.226562 93.320312 62.457031 94.714844 61.644531 L 181.429688 11.257812 C 183.175781 10.246094 185.164062 9.722656 187.179688 9.75 C 189.199219 9.722656 191.179688 10.242188 192.925781 11.257812 L 272.941406 57.75 C 273.125 57.859375 273.265625 57.996094 273.421875 58.125 L 274.4375 58.707031 C 277.15625 60.160156 281.417969 62.371094 283.730469 64.136719 L 283.917969 64.28125 C 283.949219 64.304688 283.980469 64.328125 284.015625 64.347656 C 284.09375 64.417969 284.148438 64.484375 284.226562 64.558594 C 285.074219 65.269531 285.796875 66.109375 286.355469 67.050781 C 286.371094 67.0625 286.378906 67.078125 286.394531 67.09375 L 286.386719 67.09375 C 287.324219 68.667969 287.820312 70.464844 287.820312 72.292969 L 287.820312 110.390625 C 287.820312 111.40625 287.285156 112.339844 286.410156 112.84375 L 271.707031 121.390625 C 270.84375 121.890625 269.765625 121.890625 268.902344 121.390625 C 268.027344 120.886719 267.496094 119.953125 267.496094 118.9375 L 267.496094 84.582031 C 267.496094 80.535156 265.347656 76.796875 261.863281 74.777344 L 192.675781 34.703125 L 192.675781 34.707031 Z M 192.671875 34.703125 " fill-opacity="1" fill-rule="nonzero"/></g></svg>