<svg xmlns="http://www.w3.org/2000/svg" xmlns:xlink="http://www.w3.org/1999/xlink" width="500" zoomAndPan="magnify" viewBox="0 0 375 374.999991" height="500" preserveAspectRatio="xMidYMid meet" version="1.0"><defs><clipPath id="a510a0741b"><path d="M 32.910156 11.101562 L 341.910156 11.101562 L 341.910156 363.601562 L 32.910156 363.601562 Z M 32.910156 11.101562 " clip-rule="nonzero"/></clipPath></defs><path fill="#463f57" d="M 287.570312 129.488281 C 286.941406 128.339844 286.121094 127.203125 284.40625 126.335938 L 259.941406 112.207031 C 259.601562 112.015625 259.238281 111.867188 258.851562 111.769531 C 258.734375 111.742188 258.613281 111.742188 258.480469 111.722656 C 258.226562 111.679688 257.972656 111.632812 257.71875 111.632812 L 257.671875 111.632812 L 257.671875 111.644531 C 256.945312 111.65625 256.234375 111.851562 255.605469 112.210938 L 200.554688 143.992188 L 200.503906 143.894531 L 196.0625 146.464844 C 190.703125 149.554688 184.113281 149.554688 178.753906 146.464844 L 154.6875 132.578125 C 153.355469 131.804688 152.53125 130.375 152.53125 128.828125 C 152.53125 127.28125 153.355469 125.855469 154.6875 125.082031 L 178.753906 111.199219 C 184.113281 108.105469 190.703125 108.105469 196.0625 111.199219 L 201.855469 114.542969 C 203.195312 115.3125 204.839844 115.3125 206.179688 114.542969 L 228.59375 101.609375 C 229.933594 100.835938 230.753906 99.410156 230.753906 97.863281 C 230.753906 96.320312 229.933594 94.890625 228.59375 94.117188 L 196.0625 75.335938 C 190.703125 72.25 184.113281 72.25 178.753906 75.335938 L 99.0625 121.335938 C 93.296875 124.667969 93.296875 132.988281 99.0625 136.316406 L 178.753906 182.316406 C 184.113281 185.40625 190.703125 185.40625 196.0625 182.316406 L 257.671875 146.753906 L 257.671875 227.761719 L 237.875 239.226562 L 196.0625 263.433594 C 194.734375 264.191406 193.324219 264.773438 191.851562 265.171875 C 187.433594 266.339844 182.726562 265.714844 178.753906 263.433594 L 121.46875 230.367188 C 118.789062 228.824219 117.140625 225.964844 117.144531 222.875 L 117.144531 175.65625 C 117.144531 174.113281 116.316406 172.675781 114.980469 171.914062 L 92.574219 158.96875 C 91.234375 158.195312 89.585938 158.195312 88.246094 158.96875 C 86.90625 159.738281 86.082031 161.175781 86.082031 162.71875 L 86.082031 240.808594 C 86.082031 243.894531 87.734375 246.746094 90.410156 248.300781 L 178.753906 299.296875 C 181.351562 300.792969 184.296875 301.578125 187.289062 301.601562 L 187.347656 301.601562 C 187.769531 301.601562 188.195312 301.554688 188.617188 301.527344 C 188.941406 301.503906 189.269531 301.503906 189.59375 301.46875 C 190.039062 301.410156 190.488281 301.300781 190.921875 301.214844 C 191.222656 301.144531 191.523438 301.105469 191.816406 301.035156 C 192.296875 300.914062 192.757812 300.734375 193.214844 300.5625 C 193.480469 300.46875 193.734375 300.40625 193.976562 300.308594 C 194.6875 300.019531 195.386719 299.683594 196.050781 299.296875 L 272.277344 255.300781 L 284.359375 248.445312 C 287.0625 246.914062 288.738281 244.042969 288.738281 240.929688 L 288.738281 133.820312 C 288.738281 132.273438 288.316406 130.785156 287.570312 129.488281 " fill-opacity="1" fill-rule="nonzero"/><g clip-path="url(#a510a0741b)"><path fill="#463f57" d="M 195.847656 49.46875 C 193.273438 47.988281 190.378906 47.195312 187.410156 47.167969 C 184.453125 47.195312 181.542969 47.988281 178.972656 49.46875 L 72.515625 110.917969 C 67.175781 114 63.886719 119.695312 63.886719 125.859375 L 63.886719 248.761719 C 63.886719 254.929688 67.175781 260.625 72.515625 263.703125 L 178.972656 325.148438 C 181.578125 326.65625 184.523438 327.453125 187.53125 327.464844 C 190.535156 327.453125 193.492188 326.65625 196.101562 325.160156 L 302.089844 263.980469 C 307.425781 260.902344 310.71875 255.207031 310.71875 249.039062 L 310.71875 213.527344 C 310.707031 211.980469 311.539062 210.558594 312.867188 209.785156 L 335.4375 196.765625 C 336.765625 195.992188 338.421875 195.992188 339.75 196.765625 C 341.089844 197.539062 341.910156 198.960938 341.910156 200.507812 L 341.910156 266.648438 C 341.898438 269.46875 341.195312 272.246094 339.871094 274.730469 C 339.53125 276.359375 337.757812 278.277344 335.246094 280.246094 C 335.199219 280.292969 335.125 280.34375 335.066406 280.390625 C 328.691406 285.351562 318.144531 290.46875 316.273438 291.554688 L 196.101562 360.914062 C 193.40625 362.460938 190.34375 363.257812 187.238281 363.21875 L 187.105469 363.21875 L 187.105469 363.207031 C 184.246094 363.136719 181.445312 362.339844 178.972656 360.914062 L 41.539062 281.585938 C 36.199219 278.507812 32.910156 272.8125 32.910156 266.648438 L 32.910156 107.988281 C 32.910156 105.21875 33.261719 102.394531 34.476562 100.007812 C 34.644531 99.386719 36.308594 96.339844 39.742188 93.832031 C 41.035156 92.960938 43.320312 91.792969 45.464844 90.550781 L 178.585938 13.714844 C 181.265625 12.171875 184.320312 11.378906 187.410156 11.414062 C 190.511719 11.375 193.554688 12.171875 196.234375 13.714844 L 319.074219 84.609375 C 319.351562 84.78125 319.566406 84.984375 319.808594 85.179688 L 321.367188 86.070312 C 325.542969 88.285156 332.085938 91.65625 335.632812 94.351562 L 335.921875 94.570312 C 335.972656 94.605469 336.019531 94.640625 336.066406 94.675781 C 336.1875 94.777344 336.273438 94.882812 336.394531 94.992188 C 337.699219 96.082031 338.808594 97.359375 339.664062 98.792969 C 339.6875 98.808594 339.703125 98.835938 339.726562 98.859375 L 339.714844 98.863281 C 341.148438 101.257812 341.910156 103.996094 341.910156 106.789062 L 341.910156 164.882812 C 341.910156 166.429688 341.089844 167.851562 339.75 168.625 L 317.179688 181.65625 C 315.851562 182.417969 314.195312 182.417969 312.871094 181.65625 C 311.53125 180.882812 310.707031 179.460938 310.707031 177.917969 L 310.707031 125.527344 C 310.707031 119.355469 307.414062 113.652344 302.066406 110.574219 L 195.847656 49.46875 L 195.847656 49.472656 Z M 195.847656 49.46875 " fill-opacity="1" fill-rule="nonzero"/></g></svg>